<svg width="83" height="61" fill="none" xmlns="http://www.w3.org/2000/svg"><path d="M61.39 59h-41V2h26.93l14.07 15.11V59z" fill="#fff" stroke="#020202" stroke-width="3" stroke-miterlimit="10"/><path d="M47.39 2v15h14M50.89 30h-20M50.89 37h-20M50.89 44h-20M0 59h83" stroke="#020202" stroke-width="3" stroke-miterlimit="10"/><path d="M20.5 54.28c9.113 0 16.5-7.387 16.5-16.5s-7.387-16.5-16.5-16.5S4 28.667 4 37.78s7.387 16.5 16.5 16.5z" fill="#fff"/><path d="M20.5 50.28c6.904 0 12.5-5.596 12.5-12.5s-5.596-12.5-12.5-12.5S8 30.876 8 37.78s5.596 12.5 12.5 12.5z" stroke="#95C23D" stroke-width="3" stroke-miterlimit="10"/><path d="M20.5 50.28c6.904 0 12.5-5.596 12.5-12.5s-5.596-12.5-12.5-12.5S8 30.876 8 37.78s5.596 12.5 12.5 12.5z" stroke="#95C23D" stroke-width="3" stroke-miterlimit="10"/><path d="M15 37.28l4 4 7.5-7.5" stroke="#95C23D" stroke-width="3" stroke-miterlimit="10"/></svg>