<svg width="34" height="34" viewBox="0 0 34 34" fill="none" xmlns="http://www.w3.org/2000/svg">
<path d="M16.8 33.2998C25.9127 33.2998 33.3 25.9125 33.3 16.7998C33.3 7.68711 25.9127 0.299805 16.8 0.299805C7.68729 0.299805 0.299988 7.68711 0.299988 16.7998C0.299988 25.9125 7.68729 33.2998 16.8 33.2998Z" fill="white"/>
<path d="M16.8 29.2998C23.7035 29.2998 29.3 23.7034 29.3 16.7998C29.3 9.89625 23.7035 4.2998 16.8 4.2998C9.89643 4.2998 4.29999 9.89625 4.29999 16.7998C4.29999 23.7034 9.89643 29.2998 16.8 29.2998Z" stroke="#95C23D" stroke-width="3" stroke-miterlimit="10"/>
<path d="M11.3 16.2998L15.3 20.2998L22.8 12.7998" stroke="#95C23D" stroke-width="3" stroke-miterlimit="10"/>
</svg>
